<svg width="720" height="806" viewBox="0 0 720 806" fill="none" xmlns="http://www.w3.org/2000/svg">
<rect x="-48" width="768" height="820" fill="#8257E5"/>
<path d="M542.569 737.405C537.526 737.405 533.437 733.339 533.437 728.324C533.437 723.308 537.526 719.243 542.569 719.243C547.612 719.243 551.701 723.308 551.701 728.324C551.701 733.323 547.612 737.405 542.569 737.405Z" stroke="#04D361" stroke-width="3" stroke-miterlimit="10" stroke-linecap="round" stroke-linejoin="round"/>
<path d="M536.269 734.888L529.811 741.294" stroke="#04D361" stroke-width="3" stroke-miterlimit="10" stroke-linecap="round" stroke-linejoin="round"/>
<path d="M371.217 78L361.609 87.5541" stroke="#04D361" stroke-width="3" stroke-miterlimit="10" stroke-linecap="round" stroke-linejoin="round"/>
<path d="M371.217 87.5541L361.609 78" stroke="#04D361" stroke-width="3" stroke-miterlimit="10" stroke-linecap="round" stroke-linejoin="round"/>
<path d="M357.461 652.763L347.854 662.317" stroke="#04D361" stroke-width="3" stroke-miterlimit="10" stroke-linecap="round" stroke-linejoin="round"/>
<path d="M357.461 662.317L347.854 652.763" stroke="#04D361" stroke-width="3" stroke-miterlimit="10" stroke-linecap="round" stroke-linejoin="round"/>
<path d="M57.4307 263.274L43.8441 263.274" stroke="#04D361" stroke-width="3" stroke-miterlimit="10" stroke-linecap="round" stroke-linejoin="round"/>
<path d="M50.639 270.046L50.639 256.52" stroke="#04D361" stroke-width="3" stroke-miterlimit="10" stroke-linecap="round" stroke-linejoin="round"/>
<path d="M454.866 214.422C450.316 214.422 446.609 210.752 446.609 206.211C446.609 201.686 450.3 198 454.866 198C459.416 198 463.123 201.67 463.123 206.211C463.107 210.752 459.416 214.422 454.866 214.422Z" stroke="#04D361" stroke-width="3" stroke-miterlimit="10" stroke-linecap="round" stroke-linejoin="round"/>
<path d="M619.743 421.169C615.193 421.169 611.486 417.499 611.486 412.958C611.486 408.434 615.177 404.747 619.743 404.747C624.293 404.747 628 408.418 628 412.958C627.984 417.499 624.293 421.169 619.743 421.169Z" stroke="#04D361" stroke-width="3" stroke-miterlimit="10" stroke-linecap="round" stroke-linejoin="round"/>
<path d="M100.592 547.906C96.0414 547.906 92.3345 544.236 92.3345 539.695C92.3345 535.17 96.0255 531.484 100.592 531.484C105.142 531.484 108.848 535.155 108.848 539.695C108.833 544.236 105.142 547.906 100.592 547.906Z" stroke="#04D361" stroke-width="3" stroke-miterlimit="10" stroke-linecap="round" stroke-linejoin="round"/>
<path d="M199.224 99.2467C199.224 100.889 200.562 102.221 202.214 102.221C203.866 102.221 205.204 100.889 205.204 99.2467C205.204 97.6044 203.866 96.2729 202.214 96.2729C200.562 96.2729 199.224 97.6044 199.224 99.2467Z" fill="#9871F5"/>
<path d="M199.224 120.02C199.224 121.662 200.562 122.994 202.214 122.994C203.866 122.994 205.204 121.662 205.204 120.02C205.204 118.378 203.866 117.046 202.214 117.046C200.562 117.046 199.224 118.378 199.224 120.02Z" fill="#9871F5"/>
<path d="M199.224 140.774C199.224 142.417 200.562 143.748 202.214 143.748C203.866 143.748 205.204 142.417 205.204 140.774C205.204 139.132 203.866 137.801 202.214 137.801C200.562 137.801 199.224 139.132 199.224 140.774Z" fill="#9871F5"/>
<path d="M199.224 161.545C199.224 163.187 200.562 164.519 202.214 164.519C203.866 164.519 205.204 163.187 205.204 161.545C205.204 159.902 203.866 158.571 202.214 158.571C200.562 158.571 199.224 159.902 199.224 161.545Z" fill="#9871F5"/>
<path d="M199.224 182.301C199.224 183.943 200.562 185.275 202.214 185.275C203.866 185.275 205.204 183.943 205.204 182.301C205.204 180.659 203.866 179.327 202.214 179.327C200.562 179.327 199.224 180.659 199.224 182.301Z" fill="#9871F5"/>
<path d="M199.224 203.071C199.224 204.714 200.562 206.045 202.214 206.045C203.866 206.045 205.204 204.714 205.204 203.071C205.204 201.429 203.866 200.098 202.214 200.098C200.562 200.098 199.224 201.429 199.224 203.071Z" fill="#9871F5"/>
<path d="M178.35 99.247C178.35 100.889 179.689 102.221 181.341 102.221C182.992 102.221 184.331 100.889 184.331 99.247C184.331 97.6046 182.992 96.2732 181.341 96.2732C179.689 96.2732 178.35 97.6046 178.35 99.247Z" fill="#9871F5"/>
<path d="M178.35 120.02C178.35 121.662 179.689 122.994 181.341 122.994C182.992 122.994 184.331 121.662 184.331 120.02C184.331 118.378 182.992 117.046 181.341 117.046C179.689 117.046 178.35 118.378 178.35 120.02Z" fill="#9871F5"/>
<path d="M178.35 140.774C178.35 142.417 179.689 143.748 181.341 143.748C182.992 143.748 184.331 142.417 184.331 140.774C184.331 139.132 182.992 137.801 181.341 137.801C179.689 137.801 178.35 139.132 178.35 140.774Z" fill="#9871F5"/>
<path d="M178.35 161.545C178.35 163.187 179.689 164.519 181.341 164.519C182.992 164.519 184.331 163.187 184.331 161.545C184.331 159.902 182.992 158.571 181.341 158.571C179.689 158.571 178.35 159.902 178.35 161.545Z" fill="#9871F5"/>
<path d="M178.35 182.301C178.35 183.943 179.689 185.275 181.341 185.275C182.992 185.275 184.331 183.943 184.331 182.301C184.331 180.659 182.992 179.327 181.341 179.327C179.689 179.327 178.35 180.659 178.35 182.301Z" fill="#9871F5"/>
<path d="M178.35 203.071C178.35 204.714 179.689 206.045 181.341 206.045C182.992 206.045 184.331 204.714 184.331 203.071C184.331 201.429 182.992 200.098 181.341 200.098C179.689 200.098 178.35 201.429 178.35 203.071Z" fill="#9871F5"/>
<path d="M157.461 99.247C157.461 100.889 158.8 102.221 160.452 102.221C162.103 102.221 163.442 100.889 163.442 99.247C163.442 97.6046 162.103 96.2732 160.452 96.2732C158.8 96.2732 157.461 97.6046 157.461 99.247Z" fill="#9871F5"/>
<path d="M157.461 120.02C157.461 121.662 158.8 122.994 160.452 122.994C162.103 122.994 163.442 121.662 163.442 120.02C163.442 118.378 162.103 117.046 160.452 117.046C158.8 117.046 157.461 118.378 157.461 120.02Z" fill="#9871F5"/>
<path d="M157.461 140.774C157.461 142.417 158.8 143.748 160.452 143.748C162.103 143.748 163.442 142.417 163.442 140.774C163.442 139.132 162.103 137.801 160.452 137.801C158.8 137.801 157.461 139.132 157.461 140.774Z" fill="#9871F5"/>
<path d="M157.461 161.545C157.461 163.187 158.8 164.519 160.452 164.519C162.103 164.519 163.442 163.187 163.442 161.545C163.442 159.902 162.103 158.571 160.452 158.571C158.8 158.571 157.461 159.902 157.461 161.545Z" fill="#9871F5"/>
<path d="M157.461 182.301C157.461 183.943 158.8 185.275 160.452 185.275C162.103 185.275 163.442 183.943 163.442 182.301C163.442 180.659 162.103 179.327 160.452 179.327C158.8 179.327 157.461 180.659 157.461 182.301Z" fill="#9871F5"/>
<path d="M157.461 203.071C157.461 204.714 158.8 206.045 160.452 206.045C162.103 206.045 163.442 204.714 163.442 203.071C163.442 201.429 162.103 200.098 160.452 200.098C158.8 200.098 157.461 201.429 157.461 203.071Z" fill="#9871F5"/>
<path d="M136.588 99.247C136.588 100.889 137.927 102.221 139.579 102.221C141.23 102.221 142.569 100.889 142.569 99.247C142.569 97.6046 141.23 96.2732 139.579 96.2732C137.927 96.2732 136.588 97.6046 136.588 99.247Z" fill="#9871F5"/>
<path d="M136.588 120.02C136.588 121.662 137.927 122.994 139.579 122.994C141.23 122.994 142.569 121.662 142.569 120.02C142.569 118.378 141.23 117.046 139.579 117.046C137.927 117.046 136.588 118.378 136.588 120.02Z" fill="#9871F5"/>
<path d="M136.588 140.774C136.588 142.417 137.927 143.748 139.579 143.748C141.23 143.748 142.569 142.417 142.569 140.774C142.569 139.132 141.23 137.801 139.579 137.801C137.927 137.801 136.588 139.132 136.588 140.774Z" fill="#9871F5"/>
<path d="M136.588 161.545C136.588 163.187 137.927 164.519 139.579 164.519C141.23 164.519 142.569 163.187 142.569 161.545C142.569 159.902 141.23 158.571 139.579 158.571C137.927 158.571 136.588 159.902 136.588 161.545Z" fill="#9871F5"/>
<path d="M136.588 182.301C136.588 183.943 137.927 185.275 139.579 185.275C141.23 185.275 142.569 183.943 142.569 182.301C142.569 180.659 141.23 179.327 139.579 179.327C137.927 179.327 136.588 180.659 136.588 182.301Z" fill="#9871F5"/>
<path d="M136.588 203.071C136.588 204.714 137.927 206.045 139.579 206.045C141.23 206.045 142.569 204.714 142.569 203.071C142.569 201.429 141.23 200.098 139.579 200.098C137.927 200.098 136.588 201.429 136.588 203.071Z" fill="#9871F5"/>
<path d="M539.788 553.706C539.788 555.348 541.127 556.679 542.779 556.679C544.43 556.679 545.769 555.348 545.769 553.706C545.769 552.063 544.43 550.732 542.779 550.732C541.127 550.732 539.788 552.063 539.788 553.706Z" fill="#9871F5"/>
<path d="M539.789 574.46C539.789 576.103 541.128 577.434 542.78 577.434C544.431 577.434 545.77 576.103 545.77 574.46C545.77 572.818 544.431 571.487 542.78 571.487C541.128 571.487 539.789 572.818 539.789 574.46Z" fill="#9871F5"/>
<path d="M539.789 595.23C539.789 596.872 541.128 598.204 542.78 598.204C544.431 598.204 545.77 596.872 545.77 595.23C545.77 593.588 544.431 592.256 542.78 592.256C541.128 592.256 539.789 593.588 539.789 595.23Z" fill="#9871F5"/>
<path d="M518.9 553.703C518.9 555.346 520.239 556.677 521.891 556.677C523.542 556.677 524.881 555.346 524.881 553.703C524.881 552.061 523.542 550.73 521.891 550.73C520.239 550.73 518.9 552.061 518.9 553.703Z" fill="#9871F5"/>
<path d="M518.9 574.46C518.9 576.103 520.239 577.434 521.891 577.434C523.542 577.434 524.881 576.103 524.881 574.46C524.881 572.818 523.542 571.487 521.891 571.487C520.239 571.487 518.9 572.818 518.9 574.46Z" fill="#9871F5"/>
<path d="M518.9 595.228C518.9 596.871 520.239 598.202 521.891 598.202C523.542 598.202 524.881 596.871 524.881 595.228C524.881 593.586 523.542 592.255 521.891 592.255C520.239 592.255 518.9 593.586 518.9 595.228Z" fill="#9871F5"/>
<path d="M613.498 187.974C613.498 189.617 614.837 190.948 616.488 190.948C618.14 190.948 619.479 189.617 619.479 187.974C619.479 186.332 618.14 185.001 616.488 185.001C614.837 185.001 613.498 186.332 613.498 187.974Z" fill="#9871F5"/>
<path d="M613.498 208.728C613.498 210.37 614.837 211.702 616.489 211.702C618.14 211.702 619.479 210.37 619.479 208.728C619.479 207.086 618.14 205.754 616.489 205.754C614.837 205.754 613.498 207.086 613.498 208.728Z" fill="#9871F5"/>
<path d="M613.498 229.5C613.498 231.143 614.837 232.474 616.489 232.474C618.14 232.474 619.479 231.143 619.479 229.5C619.479 227.858 618.14 226.527 616.489 226.527C614.837 226.527 613.498 227.858 613.498 229.5Z" fill="#9871F5"/>
<path d="M592.609 187.974C592.609 189.616 593.948 190.948 595.599 190.948C597.251 190.948 598.59 189.616 598.59 187.974C598.59 186.331 597.251 185 595.599 185C593.948 185 592.609 186.331 592.609 187.974Z" fill="#9871F5"/>
<path d="M592.609 208.73C592.609 210.372 593.948 211.704 595.599 211.704C597.251 211.704 598.59 210.372 598.59 208.73C598.59 207.088 597.251 205.756 595.599 205.756C593.948 205.756 592.609 207.088 592.609 208.73Z" fill="#9871F5"/>
<path d="M592.609 229.5C592.609 231.143 593.948 232.474 595.599 232.474C597.251 232.474 598.59 231.143 598.59 229.5C598.59 227.858 597.251 226.526 595.599 226.526C593.948 226.526 592.609 227.858 592.609 229.5Z" fill="#9871F5"/>
<path d="M206.711 738.983C206.711 740.626 208.049 741.957 209.701 741.957C211.353 741.957 212.691 740.626 212.691 738.983C212.691 737.341 211.353 736.01 209.701 736.01C208.049 736.01 206.711 737.341 206.711 738.983Z" fill="#9871F5"/>
<path d="M185.822 738.983C185.822 740.626 187.16 741.957 188.812 741.957C190.464 741.957 191.802 740.626 191.802 738.983C191.802 737.341 190.464 736.01 188.812 736.01C187.16 736.01 185.822 737.341 185.822 738.983Z" fill="#9871F5"/>
<path d="M164.948 738.983C164.948 740.626 166.287 741.957 167.939 741.957C169.59 741.957 170.929 740.626 170.929 738.983C170.929 737.341 169.59 736.01 167.939 736.01C166.287 736.01 164.948 737.341 164.948 738.983Z" fill="#9871F5"/>
<path d="M144.059 738.983C144.059 740.626 145.398 741.957 147.05 741.957C148.701 741.957 150.04 740.626 150.04 738.983C150.04 737.341 148.701 736.01 147.05 736.01C145.398 736.01 144.059 737.341 144.059 738.983Z" fill="#9871F5"/>
<path d="M123.186 738.983C123.186 740.626 124.525 741.957 126.177 741.957C127.828 741.957 129.167 740.626 129.167 738.983C129.167 737.341 127.828 736.01 126.177 736.01C124.525 736.01 123.186 737.341 123.186 738.983Z" fill="#9871F5"/>
<path d="M102.297 738.983C102.297 740.626 103.636 741.957 105.288 741.957C106.939 741.957 108.278 740.626 108.278 738.983C108.278 737.341 106.939 736.01 105.288 736.01C103.636 736.01 102.297 737.341 102.297 738.983Z" fill="#9871F5"/>
<path d="M81.4238 738.983C81.4238 740.626 82.7627 741.957 84.4143 741.957C86.0659 741.957 87.4047 740.626 87.4047 738.983C87.4047 737.341 86.0659 736.01 84.4143 736.01C82.7627 736.01 81.4238 737.341 81.4238 738.983Z" fill="#9871F5"/>
<path d="M206.711 718.212C206.711 719.854 208.049 721.186 209.701 721.186C211.353 721.186 212.691 719.854 212.691 718.212C212.691 716.57 211.353 715.238 209.701 715.238C208.049 715.238 206.711 716.57 206.711 718.212Z" fill="#9871F5"/>
<path d="M185.822 718.212C185.822 719.854 187.16 721.186 188.812 721.186C190.464 721.186 191.802 719.854 191.802 718.212C191.802 716.57 190.464 715.238 188.812 715.238C187.16 715.238 185.822 716.57 185.822 718.212Z" fill="#9871F5"/>
<path d="M164.948 718.212C164.948 719.854 166.287 721.186 167.939 721.186C169.59 721.186 170.929 719.854 170.929 718.212C170.929 716.57 169.59 715.238 167.939 715.238C166.287 715.238 164.948 716.57 164.948 718.212Z" fill="#9871F5"/>
<path d="M144.059 718.212C144.059 719.854 145.398 721.186 147.05 721.186C148.701 721.186 150.04 719.854 150.04 718.212C150.04 716.57 148.701 715.238 147.05 715.238C145.398 715.238 144.059 716.57 144.059 718.212Z" fill="#9871F5"/>
<path d="M123.186 718.212C123.186 719.854 124.525 721.186 126.177 721.186C127.828 721.186 129.167 719.854 129.167 718.212C129.167 716.57 127.828 715.238 126.177 715.238C124.525 715.238 123.186 716.57 123.186 718.212Z" fill="#9871F5"/>
<path d="M102.297 718.212C102.297 719.854 103.636 721.186 105.288 721.186C106.939 721.186 108.278 719.854 108.278 718.212C108.278 716.57 106.939 715.238 105.288 715.238C103.636 715.238 102.297 716.57 102.297 718.212Z" fill="#9871F5"/>
<path d="M81.4238 718.212C81.4238 719.854 82.7627 721.186 84.4143 721.186C86.0659 721.186 87.4047 719.854 87.4047 718.212C87.4047 716.57 86.0659 715.238 84.4143 715.238C82.7627 715.238 81.4238 716.57 81.4238 718.212Z" fill="#9871F5"/>
<path d="M206.711 697.456C206.711 699.098 208.049 700.43 209.701 700.43C211.353 700.43 212.691 699.098 212.691 697.456C212.691 695.814 211.353 694.482 209.701 694.482C208.049 694.482 206.711 695.814 206.711 697.456Z" fill="#9871F5"/>
<path d="M185.822 697.456C185.822 699.098 187.16 700.43 188.812 700.43C190.464 700.43 191.802 699.098 191.802 697.456C191.802 695.814 190.464 694.482 188.812 694.482C187.16 694.482 185.822 695.814 185.822 697.456Z" fill="#9871F5"/>
<path d="M164.948 697.456C164.948 699.098 166.287 700.43 167.939 700.43C169.59 700.43 170.929 699.098 170.929 697.456C170.929 695.814 169.59 694.482 167.939 694.482C166.287 694.482 164.948 695.814 164.948 697.456Z" fill="#9871F5"/>
<path d="M144.059 697.456C144.059 699.098 145.398 700.43 147.05 700.43C148.701 700.43 150.04 699.098 150.04 697.456C150.04 695.814 148.701 694.482 147.05 694.482C145.398 694.482 144.059 695.814 144.059 697.456Z" fill="#9871F5"/>
<path d="M123.186 697.456C123.186 699.098 124.525 700.43 126.177 700.43C127.828 700.43 129.167 699.098 129.167 697.456C129.167 695.814 127.828 694.482 126.177 694.482C124.525 694.482 123.186 695.814 123.186 697.456Z" fill="#9871F5"/>
<path d="M102.297 697.456C102.297 699.098 103.636 700.43 105.288 700.43C106.939 700.43 108.278 699.098 108.278 697.456C108.278 695.814 106.939 694.482 105.288 694.482C103.636 694.482 102.297 695.814 102.297 697.456Z" fill="#9871F5"/>
<path d="M81.4238 697.456C81.4238 699.098 82.7627 700.43 84.4143 700.43C86.0659 700.43 87.4047 699.098 87.4047 697.456C87.4047 695.814 86.0659 694.482 84.4143 694.482C82.7627 694.482 81.4238 695.814 81.4238 697.456Z" fill="#9871F5"/>
<path d="M206.708 676.686C206.708 678.328 208.047 679.66 209.699 679.66C211.351 679.66 212.689 678.328 212.689 676.686C212.689 675.043 211.351 673.712 209.699 673.712C208.047 673.712 206.708 675.043 206.708 676.686Z" fill="#9871F5"/>
<path d="M185.822 676.685C185.822 678.328 187.16 679.659 188.812 679.659C190.464 679.659 191.802 678.328 191.802 676.685C191.802 675.043 190.464 673.712 188.812 673.712C187.16 673.712 185.822 675.043 185.822 676.685Z" fill="#9871F5"/>
<path d="M164.948 676.685C164.948 678.328 166.287 679.659 167.939 679.659C169.59 679.659 170.929 678.328 170.929 676.685C170.929 675.043 169.59 673.712 167.939 673.712C166.287 673.712 164.948 675.043 164.948 676.685Z" fill="#9871F5"/>
<path d="M144.059 676.685C144.059 678.328 145.398 679.659 147.05 679.659C148.701 679.659 150.04 678.328 150.04 676.685C150.04 675.043 148.701 673.712 147.05 673.712C145.398 673.712 144.059 675.043 144.059 676.685Z" fill="#9871F5"/>
<path d="M123.186 676.685C123.186 678.328 124.525 679.659 126.177 679.659C127.828 679.659 129.167 678.328 129.167 676.685C129.167 675.043 127.828 673.712 126.177 673.712C124.525 673.712 123.186 675.043 123.186 676.685Z" fill="#9871F5"/>
<path d="M102.297 676.685C102.297 678.328 103.636 679.659 105.288 679.659C106.939 679.659 108.278 678.328 108.278 676.685C108.278 675.043 106.939 673.712 105.288 673.712C103.636 673.712 102.297 675.043 102.297 676.685Z" fill="#9871F5"/>
<path d="M81.4238 676.685C81.4238 678.328 82.7627 679.659 84.4143 679.659C86.0658 679.659 87.4047 678.328 87.4047 676.685C87.4047 675.043 86.0658 673.712 84.4143 673.712C82.7627 673.712 81.4238 675.043 81.4238 676.685Z" fill="#9871F5"/>
<g clip-path="url(#clip0)">
<path d="M225.023 330.13H185.018C174.373 330.13 169 335.29 169 345.511V400.21C169 401.55 169.721 402.375 171.273 402.375H183.366C184.813 402.375 185.745 401.55 185.745 400.21V398.133C185.745 393.067 187.883 390.306 193.197 389.773H225.023C236.7 389.773 241.973 384.719 241.973 373.673V346.23C241.973 335.185 236.7 330.13 225.023 330.13ZM225.246 369.028C225.246 375.019 223.886 376.253 216.75 376.253H199.8C192.67 376.253 188.118 378.629 185.739 383.274V349.536C185.739 344.891 186.876 343.65 192.559 343.65H216.75C223.886 343.65 225.246 344.891 225.246 350.875V369.028Z" fill="white"/>
<path d="M280.32 360.37C271.121 360.37 267.19 365.015 267.19 372.86V400.414C267.19 401.655 266.569 402.374 265.122 402.374H254.165C252.718 402.374 251.998 401.655 251.998 400.414V350.05C251.998 348.81 252.718 348.084 254.165 348.084H263.364C264.711 348.084 265.432 348.81 265.432 350.05V358.176C267.19 351.472 272.258 348.061 281.251 348.061H284.972C286.313 348.061 287.034 348.786 287.034 350.027V358.41C287.034 359.75 286.313 360.37 284.972 360.37H280.32Z" fill="white"/>
<path d="M351.634 387.613C351.634 397.834 347.088 402.373 336.237 402.373H309.362C298.611 402.373 293.959 397.834 293.959 387.613V362.855C293.959 352.641 298.611 348.095 309.362 348.095H336.237C347.088 348.095 351.634 352.641 351.634 362.855V387.613ZM336.442 366.769C336.442 361.399 335.411 360.369 329.001 360.369H316.698C310.188 360.369 309.151 361.399 309.151 366.769V383.694C309.151 389.058 310.188 390.094 316.698 390.094H329.001C335.411 390.094 336.442 389.058 336.442 383.694V366.769Z" fill="white"/>
<path d="M366.932 360.37H361.759C360.411 360.37 359.69 359.75 359.69 358.41V350.05C359.69 348.81 360.411 348.085 361.759 348.085H366.926V341.38C366.932 331.16 372.305 326 382.95 326H395.664C397.111 326 397.732 326.726 397.732 327.96V336.32C397.732 337.665 397.111 338.28 395.664 338.28H388.95C383.261 338.28 382.124 339.52 382.124 344.165V348.085H395.664C397.111 348.085 397.732 348.81 397.732 350.05V358.41C397.732 359.75 397.111 360.37 395.664 360.37H382.124V400.415C382.124 401.655 381.404 402.374 379.956 402.374H369C367.553 402.374 366.932 401.655 366.932 400.415V360.37Z" fill="white"/>
<path d="M409.105 360.37H403.943C402.601 360.37 401.881 359.75 401.881 358.41V350.05C401.881 348.81 402.601 348.085 403.943 348.085H409.116V341.38C409.105 331.16 414.489 326 425.123 326H437.837C439.284 326 439.905 326.726 439.905 327.96V336.32C439.905 337.665 439.284 338.28 437.837 338.28H431.117C425.433 338.28 424.297 339.52 424.297 344.165V348.085H437.837C439.284 348.085 439.905 348.81 439.905 350.05V358.41C439.905 359.75 439.284 360.37 437.837 360.37H424.297V400.415C424.297 401.655 423.57 402.374 422.123 402.374H411.167C409.72 402.374 409.105 401.655 409.105 400.415V360.37Z" fill="white"/>
<path d="M486.103 423.429H463.569C453.445 423.429 449.103 419.51 449.103 409.804V408.775C449.073 408.498 449.106 408.218 449.2 407.955C449.293 407.692 449.444 407.454 449.642 407.258C449.84 407.062 450.08 406.913 450.344 406.822C450.608 406.731 450.889 406.701 451.166 406.733H461.712C463.159 406.733 463.88 407.458 463.88 408.798V409.313C463.88 411.378 465.022 412.203 467.295 412.203H480.32C486.519 412.203 488.071 410.658 488.071 405.393V389.112C485.693 393.757 481.146 396.132 474.01 396.132H463.464C452.713 396.132 447.955 391.593 447.955 381.372V350.05C447.941 349.78 447.986 349.51 448.086 349.258C448.186 349.007 448.34 348.78 448.537 348.593C448.733 348.406 448.968 348.264 449.224 348.176C449.481 348.089 449.753 348.057 450.023 348.085H461.085C462.427 348.085 463.153 348.81 463.153 350.05V377.482C463.153 382.847 464.29 383.882 470.7 383.882H478.556C485.376 383.882 488.065 381.092 488.065 375.417V350.05C488.065 348.81 488.786 348.085 490.134 348.085H501.201C501.466 348.059 501.733 348.093 501.983 348.183C502.233 348.272 502.46 348.416 502.648 348.604C502.835 348.792 502.979 349.02 503.068 349.27C503.158 349.52 503.19 349.786 503.164 350.05V407.02C503.158 417.848 497.369 423.429 486.103 423.429Z" fill="white"/>
</g>
<path d="M183.691 452.213C183.691 445.072 173.269 448.172 173.269 443.19C173.269 441.114 174.904 440.034 176.983 440.09C179.339 440.117 180.559 441.584 180.725 442.885H183.497C183.192 439.951 180.781 437.931 177.094 437.931C173.269 437.931 170.691 440.09 170.691 443.273C170.691 450.441 181.141 447.12 181.141 452.323C181.141 454.15 179.7 455.534 177.26 455.534C174.572 455.534 173.435 453.929 173.269 452.323H170.58C170.635 455.506 173.38 457.665 177.26 457.665C181.446 457.665 183.691 454.953 183.691 452.213Z" fill="#D4C2FF"/>
<path d="M200.875 442.304H198.352V450.635C198.352 453.901 196.606 455.506 194 455.506C191.45 455.506 189.759 453.929 189.759 450.857V442.304H187.265V451.189C187.265 455.534 190.009 457.693 193.501 457.693C195.525 457.693 197.382 456.807 198.352 455.23V457.472H200.875V442.304Z" fill="#D4C2FF"/>
<path d="M204.191 449.832C204.191 454.538 207.324 457.721 211.371 457.721C214.17 457.721 216.139 456.281 217.053 454.648V457.472H219.603V442.304H217.053V445.072C216.166 443.494 214.226 442.055 211.398 442.055C207.324 442.055 204.191 445.1 204.191 449.832ZM217.053 449.86C217.053 453.431 214.669 455.506 211.897 455.506C209.125 455.506 206.769 453.403 206.769 449.832C206.769 446.262 209.125 444.241 211.897 444.241C214.669 444.241 217.053 446.345 217.053 449.86Z" fill="#D4C2FF"/>
<path d="M233.779 445.1V442.304H231.256V464.668H233.779V454.676C234.721 456.226 236.689 457.721 239.461 457.721C243.536 457.721 246.668 454.538 246.668 449.832C246.668 445.1 243.536 442.055 239.461 442.055C236.689 442.055 234.693 443.494 233.779 445.1ZM244.09 449.832C244.09 453.403 241.734 455.506 238.934 455.506C236.19 455.506 233.779 453.431 233.779 449.86C233.779 446.345 236.19 444.241 238.934 444.241C241.734 444.241 244.09 446.262 244.09 449.832Z" fill="#D4C2FF"/>
<path d="M249.988 457.472H252.511V436.99H249.988V457.472Z" fill="#D4C2FF"/>
<path d="M255.868 449.832C255.868 454.538 259 457.721 263.047 457.721C265.847 457.721 267.815 456.281 268.729 454.648V457.472H271.28V442.304H268.729V445.072C267.842 443.494 265.902 442.055 263.075 442.055C259 442.055 255.868 445.1 255.868 449.832ZM268.729 449.86C268.729 453.431 266.345 455.506 263.574 455.506C260.802 455.506 258.445 453.403 258.445 449.832C258.445 446.262 260.802 444.241 263.574 444.241C266.345 444.241 268.729 446.345 268.729 449.86Z" fill="#D4C2FF"/>
<path d="M276.013 457.472H278.536V444.38H281.724V442.304H278.536V441.225C278.536 439.259 279.284 438.429 281.557 438.429V436.326C277.677 436.326 276.013 437.848 276.013 441.225V442.304H274.045V444.38H276.013V457.472Z" fill="#D4C2FF"/>
<path d="M299.079 449.86C299.079 445.072 295.725 442.055 291.401 442.055C287.104 442.055 283.722 445.072 283.722 449.86C283.722 454.676 286.993 457.721 291.29 457.721C295.614 457.721 299.079 454.676 299.079 449.86ZM286.3 449.86C286.3 446.041 288.712 444.241 291.373 444.241C293.978 444.241 296.501 446.041 296.501 449.86C296.501 453.707 293.923 455.506 291.29 455.506C288.656 455.506 286.3 453.707 286.3 449.86Z" fill="#D4C2FF"/>
<path d="M304.918 449.224C304.918 445.708 306.747 444.629 309.159 444.629H309.824V442.027C307.413 442.027 305.777 443.079 304.918 444.767V442.304H302.395V457.472H304.918V449.224Z" fill="#D4C2FF"/>
<path d="M334.662 457.472H337.157V448.532C337.157 444.186 334.468 442.027 331.003 442.027C328.675 442.027 326.513 443.217 325.626 445.404C324.628 443.134 322.549 442.027 320.054 442.027C318.058 442.027 316.256 442.885 315.259 444.491V442.304H312.736V457.472H315.259V449.113C315.259 445.847 317.005 444.214 319.555 444.214C322.05 444.214 323.713 445.791 323.713 448.891V457.472H326.208V449.113C326.208 445.847 327.954 444.214 330.504 444.214C332.999 444.214 334.662 445.791 334.662 448.891V457.472Z" fill="#D4C2FF"/>
<path d="M340.352 449.832C340.352 454.538 343.484 457.721 347.531 457.721C350.331 457.721 352.299 456.281 353.214 454.648V457.472H355.764V442.304H353.214V445.072C352.327 443.494 350.387 442.055 347.559 442.055C343.484 442.055 340.352 445.1 340.352 449.832ZM353.214 449.86C353.214 453.431 350.83 455.506 348.058 455.506C345.286 455.506 342.93 453.403 342.93 449.832C342.93 446.262 345.286 444.241 348.058 444.241C350.83 444.241 353.214 446.345 353.214 449.86Z" fill="#D4C2FF"/>
<path d="M366.474 449.832C366.474 454.538 369.607 457.721 373.681 457.721C376.453 457.721 378.422 456.309 379.336 454.621V457.472H381.886V436.99H379.336V445.016C378.283 443.273 376.093 442.055 373.709 442.055C369.607 442.055 366.474 445.1 366.474 449.832ZM379.336 449.86C379.336 453.431 376.952 455.506 374.18 455.506C371.408 455.506 369.052 453.403 369.052 449.832C369.052 446.262 371.408 444.241 374.18 444.241C376.952 444.241 379.336 446.345 379.336 449.86Z" fill="#D4C2FF"/>
<path d="M392.608 444.186C395.213 444.186 397.431 445.819 397.403 448.781H387.812C388.09 445.819 390.141 444.186 392.608 444.186ZM399.704 452.794H396.987C396.433 454.427 394.992 455.589 392.719 455.589C390.141 455.589 387.979 453.901 387.785 450.829H399.926C399.981 450.303 400.009 449.86 400.009 449.307C400.009 445.155 397.126 442.055 392.719 442.055C388.284 442.055 385.207 445.072 385.207 449.86C385.207 454.676 388.394 457.721 392.719 457.721C396.488 457.721 398.928 455.562 399.704 452.794Z" fill="#D4C2FF"/>
<path d="M177.593 479.553C180.199 479.553 182.416 481.186 182.388 484.147H172.797C173.075 481.186 175.126 479.553 177.593 479.553ZM184.689 488.16H181.973C181.418 489.793 179.977 490.956 177.704 490.956C175.126 490.956 172.964 489.268 172.77 486.195H184.911C184.966 485.669 184.994 485.227 184.994 484.673C184.994 480.521 182.111 477.421 177.704 477.421C173.269 477.421 170.192 480.438 170.192 485.227C170.192 490.043 173.38 493.087 177.704 493.087C181.474 493.087 183.913 490.928 184.689 488.16Z" fill="#D4C2FF"/>
<path d="M199.245 488.714C199.134 483.289 190.319 485.254 190.319 481.656C190.319 480.438 191.428 479.553 193.285 479.553C195.309 479.553 196.473 480.66 196.584 482.182H199.106C198.94 479.22 196.723 477.421 193.369 477.421C189.987 477.421 187.797 479.331 187.797 481.656C187.797 487.302 196.778 485.337 196.778 488.714C196.778 489.959 195.669 490.956 193.673 490.956C191.539 490.956 190.236 489.849 190.098 488.382H187.492C187.658 491.15 190.153 493.087 193.701 493.087C197.055 493.087 199.245 491.205 199.245 488.714Z" fill="#D4C2FF"/>
<path d="M203.36 488.686C203.36 491.731 204.885 492.838 207.574 492.838H209.847V490.707H207.989C206.437 490.707 205.883 490.181 205.883 488.686V479.746H209.847V477.67H205.883V473.851H203.36V477.67H201.392V479.746H203.36V488.686Z" fill="#D4C2FF"/>
<path d="M226.375 477.67H223.852V486.002C223.852 489.268 222.106 490.873 219.5 490.873C216.95 490.873 215.259 489.295 215.259 486.223V477.67H212.764V486.555C212.764 490.901 215.509 493.059 219.001 493.059C221.025 493.059 222.882 492.174 223.852 490.596V492.838H226.375V477.67Z" fill="#D4C2FF"/>
<path d="M229.691 485.199C229.691 489.904 232.823 493.087 236.898 493.087C239.67 493.087 241.638 491.676 242.553 489.987V492.838H245.103V472.356H242.553V480.383C241.5 478.639 239.31 477.421 236.926 477.421C232.823 477.421 229.691 480.466 229.691 485.199ZM242.553 485.227C242.553 488.797 240.169 490.873 237.397 490.873C234.625 490.873 232.269 488.769 232.269 485.199C232.269 481.628 234.625 479.608 237.397 479.608C240.169 479.608 242.553 481.711 242.553 485.227Z" fill="#D4C2FF"/>
<path d="M263.78 485.227C263.78 480.438 260.426 477.421 256.102 477.421C251.805 477.421 248.423 480.438 248.423 485.227C248.423 490.043 251.694 493.087 255.991 493.087C260.315 493.087 263.78 490.043 263.78 485.227ZM251.001 485.227C251.001 481.407 253.413 479.608 256.074 479.608C258.68 479.608 261.202 481.407 261.202 485.227C261.202 489.074 258.624 490.873 255.991 490.873C253.357 490.873 251.001 489.074 251.001 485.227Z" fill="#D4C2FF"/>
<path d="M278.018 488.714C277.907 483.289 269.092 485.254 269.092 481.656C269.092 480.438 270.201 479.553 272.058 479.553C274.082 479.553 275.246 480.66 275.357 482.182H277.879C277.713 479.22 275.495 477.421 272.141 477.421C268.76 477.421 266.57 479.331 266.57 481.656C266.57 487.302 275.551 485.337 275.551 488.714C275.551 489.959 274.442 490.956 272.446 490.956C270.312 490.956 269.009 489.849 268.871 488.382H266.265C266.431 491.15 268.926 493.087 272.474 493.087C275.828 493.087 278.018 491.205 278.018 488.714Z" fill="#D4C2FF"/>
<path d="M303.383 485.227C303.383 480.438 300.029 477.421 295.705 477.421C291.408 477.421 288.026 480.438 288.026 485.227C288.026 490.043 291.297 493.087 295.594 493.087C299.918 493.087 303.383 490.043 303.383 485.227ZM290.604 485.227C290.604 481.407 293.016 479.608 295.677 479.608C298.283 479.608 300.805 481.407 300.805 485.227C300.805 489.074 298.227 490.873 295.594 490.873C292.96 490.873 290.604 489.074 290.604 485.227Z" fill="#D4C2FF"/>
<path d="M317.815 492.838H320.31V483.898C320.31 479.553 317.621 477.394 314.101 477.394C312.049 477.394 310.22 478.252 309.222 479.829V477.67H306.7V492.838H309.222V484.452C309.222 481.186 310.996 479.58 313.574 479.58C316.124 479.58 317.815 481.158 317.815 484.258V492.838Z" fill="#D4C2FF"/>
<path d="M324.43 492.838H326.953V472.356H324.43V492.838Z" fill="#D4C2FF"/>
<path d="M331.252 492.838H333.774V477.67H331.252V492.838ZM332.555 475.207C333.469 475.207 334.218 474.46 334.218 473.491C334.218 472.522 333.469 471.775 332.555 471.775C331.584 471.775 330.836 472.522 330.836 473.491C330.836 474.46 331.584 475.207 332.555 475.207Z" fill="#D4C2FF"/>
<path d="M349.189 492.838H351.684V483.898C351.684 479.553 348.995 477.394 345.474 477.394C343.423 477.394 341.594 478.252 340.596 479.829V477.67H338.073V492.838H340.596V484.452C340.596 481.186 342.37 479.58 344.948 479.58C347.498 479.58 349.189 481.158 349.189 484.258V492.838Z" fill="#D4C2FF"/>
<path d="M362.263 479.553C364.868 479.553 367.086 481.186 367.058 484.147H357.467C357.744 481.186 359.796 479.553 362.263 479.553ZM369.359 488.16H366.642C366.088 489.793 364.646 490.956 362.373 490.956C359.796 490.956 357.633 489.268 357.439 486.195H369.581C369.636 485.669 369.664 485.227 369.664 484.673C369.664 480.521 366.781 477.421 362.373 477.421C357.938 477.421 354.862 480.438 354.862 485.227C354.862 490.043 358.049 493.087 362.373 493.087C366.143 493.087 368.583 490.928 369.359 488.16Z" fill="#D4C2FF"/>
<path d="M375.46 491.288C375.46 490.319 374.712 489.572 373.797 489.572C372.827 489.572 372.079 490.319 372.079 491.288C372.079 492.257 372.827 493.004 373.797 493.004C374.712 493.004 375.46 492.257 375.46 491.288Z" fill="#D4C2FF"/>
<defs>
<clipPath id="clip0">
<rect width="334.173" height="97.6421" fill="white" transform="translate(169 326)"/>
</clipPath>
</defs>
</svg>
